<svg width="307" height="182" viewBox="0 0 307 182" fill="none" xmlns="http://www.w3.org/2000/svg">
<path d="M55.296 133.928C56.192 133.928 56.704 134.568 56.704 135.208V151.848C56.704 152.36 56.192 153 55.296 153H1.408C0.64 153 0 152.36 0 151.848V133.928H19.584H55.296ZM19.584 114.344H0V51.752C0 51.24 0.64 50.6 1.408 50.6H18.304C19.072 50.6 19.584 51.24 19.584 51.752V114.344ZM101.353 135.464C102.249 135.464 102.761 135.976 102.761 136.616V151.848C102.761 152.36 102.249 153 101.353 153H61.033C60.265 153 59.625 152.36 59.625 151.848V136.616C59.625 135.976 60.265 135.464 61.033 135.464H71.529V99.24V68.136V50.6H91.113V68.136V99.24V135.464H101.353ZM196.523 128.296V95.784L170.411 148.136C170.283 148.52 169.643 148.904 169.259 148.904H153.515C153.131 148.904 152.363 148.52 152.235 148.136L124.459 94.376V151.848C124.459 152.36 123.819 153 123.051 153H106.155C105.259 153 104.875 152.36 104.875 151.848V51.752C104.875 51.24 105.259 50.6 106.155 50.6H123.307C123.691 50.6 124.459 50.984 124.587 51.368L161.323 126.376L196.267 51.368C196.523 50.984 197.163 50.6 197.675 50.6H214.571C215.467 50.6 215.979 51.24 215.979 51.752V128.296H196.523ZM302.009 151.464C302.393 152.232 301.753 153 300.857 153H283.193C282.809 153 282.169 152.744 282.041 152.232L261.817 95.144L241.849 152.232C241.721 152.744 241.081 153 240.569 153H223.033C221.881 153 221.369 152.232 221.753 151.464L260.537 51.368C260.921 50.344 262.713 50.344 263.097 51.368L302.009 151.464Z" fill="#289BDB"/>
<path d="M143.696 176.096C143.419 176.096 143.184 176 142.992 175.808C142.8 175.616 142.704 175.381 142.704 175.104C142.704 174.827 142.8 174.592 142.992 174.4C143.184 174.208 143.419 174.112 143.696 174.112C143.963 174.112 144.187 174.208 144.368 174.4C144.56 174.592 144.656 174.827 144.656 175.104C144.656 175.381 144.56 175.616 144.368 175.808C144.187 176 143.963 176.096 143.696 176.096ZM147.055 176.096C146.778 176.096 146.543 176 146.351 175.808C146.159 175.616 146.063 175.381 146.063 175.104C146.063 174.827 146.159 174.592 146.351 174.4C146.543 174.208 146.778 174.112 147.055 174.112C147.322 174.112 147.546 174.208 147.727 174.4C147.919 174.592 148.015 174.827 148.015 175.104C148.015 175.381 147.919 175.616 147.727 175.808C147.546 176 147.322 176.096 147.055 176.096ZM150.415 176.096C150.137 176.096 149.903 176 149.711 175.808C149.519 175.616 149.423 175.381 149.423 175.104C149.423 174.827 149.519 174.592 149.711 174.4C149.903 174.208 150.137 174.112 150.415 174.112C150.681 174.112 150.905 174.208 151.087 174.4C151.279 174.592 151.375 174.827 151.375 175.104C151.375 175.381 151.279 175.616 151.087 175.808C150.905 176 150.681 176.096 150.415 176.096ZM156.414 176.144C155.742 176.144 155.139 176.032 154.606 175.808C154.073 175.573 153.651 175.253 153.342 174.848C153.033 174.432 152.862 173.957 152.83 173.424H154.334C154.377 173.861 154.579 174.219 154.942 174.496C155.315 174.773 155.801 174.912 156.398 174.912C156.953 174.912 157.39 174.789 157.71 174.544C158.03 174.299 158.19 173.989 158.19 173.616C158.19 173.232 158.019 172.949 157.678 172.768C157.337 172.576 156.809 172.389 156.094 172.208C155.443 172.037 154.91 171.867 154.494 171.696C154.089 171.515 153.737 171.253 153.438 170.912C153.15 170.56 153.006 170.101 153.006 169.536C153.006 169.088 153.139 168.677 153.406 168.304C153.673 167.931 154.051 167.637 154.542 167.424C155.033 167.2 155.593 167.088 156.222 167.088C157.193 167.088 157.977 167.333 158.574 167.824C159.171 168.315 159.491 168.987 159.534 169.84H158.078C158.046 169.381 157.859 169.013 157.518 168.736C157.187 168.459 156.739 168.32 156.174 168.32C155.651 168.32 155.235 168.432 154.926 168.656C154.617 168.88 154.462 169.173 154.462 169.536C154.462 169.824 154.553 170.064 154.734 170.256C154.926 170.437 155.161 170.587 155.438 170.704C155.726 170.811 156.121 170.933 156.622 171.072C157.251 171.243 157.763 171.413 158.158 171.584C158.553 171.744 158.889 171.989 159.166 172.32C159.454 172.651 159.603 173.083 159.614 173.616C159.614 174.096 159.481 174.528 159.214 174.912C158.947 175.296 158.569 175.6 158.078 175.824C157.598 176.037 157.043 176.144 156.414 176.144ZM163.126 168.848C163.414 168.347 163.84 167.931 164.406 167.6C164.982 167.259 165.648 167.088 166.406 167.088C167.184 167.088 167.888 167.275 168.517 167.648C169.157 168.021 169.659 168.549 170.022 169.232C170.384 169.904 170.566 170.688 170.566 171.584C170.566 172.469 170.384 173.259 170.022 173.952C169.659 174.645 169.157 175.184 168.517 175.568C167.888 175.952 167.184 176.144 166.406 176.144C165.659 176.144 164.998 175.979 164.422 175.648C163.856 175.307 163.424 174.885 163.126 174.384V180.16H161.67V167.232H163.126V168.848ZM169.078 171.584C169.078 170.923 168.944 170.347 168.678 169.856C168.411 169.365 168.048 168.992 167.59 168.736C167.142 168.48 166.646 168.352 166.102 168.352C165.568 168.352 165.072 168.485 164.614 168.752C164.166 169.008 163.803 169.387 163.526 169.888C163.259 170.379 163.126 170.949 163.126 171.6C163.126 172.261 163.259 172.843 163.526 173.344C163.803 173.835 164.166 174.213 164.614 174.48C165.072 174.736 165.568 174.864 166.102 174.864C166.646 174.864 167.142 174.736 167.59 174.48C168.048 174.213 168.411 173.835 168.678 173.344C168.944 172.843 169.078 172.256 169.078 171.584ZM180.482 171.28C180.482 171.557 180.466 171.851 180.434 172.16H173.426C173.479 173.024 173.773 173.701 174.306 174.192C174.85 174.672 175.506 174.912 176.274 174.912C176.903 174.912 177.426 174.768 177.842 174.48C178.269 174.181 178.567 173.787 178.738 173.296H180.306C180.071 174.139 179.602 174.827 178.898 175.36C178.194 175.883 177.319 176.144 176.274 176.144C175.442 176.144 174.695 175.957 174.034 175.584C173.383 175.211 172.871 174.683 172.498 174C172.125 173.307 171.938 172.507 171.938 171.6C171.938 170.693 172.119 169.899 172.482 169.216C172.845 168.533 173.351 168.011 174.002 167.648C174.663 167.275 175.421 167.088 176.274 167.088C177.106 167.088 177.842 167.269 178.482 167.632C179.122 167.995 179.613 168.496 179.954 169.136C180.306 169.765 180.482 170.48 180.482 171.28ZM178.978 170.976C178.978 170.421 178.855 169.947 178.61 169.552C178.365 169.147 178.029 168.843 177.602 168.64C177.186 168.427 176.722 168.32 176.21 168.32C175.474 168.32 174.845 168.555 174.322 169.024C173.81 169.493 173.517 170.144 173.442 170.976H178.978ZM190.404 171.28C190.404 171.557 190.388 171.851 190.356 172.16H183.348C183.401 173.024 183.695 173.701 184.228 174.192C184.772 174.672 185.428 174.912 186.196 174.912C186.825 174.912 187.348 174.768 187.764 174.48C188.191 174.181 188.489 173.787 188.66 173.296H190.228C189.993 174.139 189.524 174.827 188.82 175.36C188.116 175.883 187.241 176.144 186.196 176.144C185.364 176.144 184.617 175.957 183.956 175.584C183.305 175.211 182.793 174.683 182.42 174C182.047 173.307 181.86 172.507 181.86 171.6C181.86 170.693 182.041 169.899 182.404 169.216C182.767 168.533 183.273 168.011 183.924 167.648C184.585 167.275 185.343 167.088 186.196 167.088C187.028 167.088 187.764 167.269 188.404 167.632C189.044 167.995 189.535 168.496 189.876 169.136C190.228 169.765 190.404 170.48 190.404 171.28ZM188.9 170.976C188.9 170.421 188.777 169.947 188.532 169.552C188.287 169.147 187.951 168.843 187.524 168.64C187.108 168.427 186.644 168.32 186.132 168.32C185.396 168.32 184.767 168.555 184.244 169.024C183.732 169.493 183.439 170.144 183.364 170.976H188.9ZM191.782 171.584C191.782 170.688 191.963 169.904 192.326 169.232C192.688 168.549 193.184 168.021 193.814 167.648C194.454 167.275 195.168 167.088 195.958 167.088C196.64 167.088 197.275 167.248 197.862 167.568C198.448 167.877 198.896 168.288 199.206 168.8V164.16H200.678V176H199.206V174.352C198.918 174.875 198.491 175.307 197.926 175.648C197.36 175.979 196.699 176.144 195.942 176.144C195.163 176.144 194.454 175.952 193.814 175.568C193.184 175.184 192.688 174.645 192.326 173.952C191.963 173.259 191.782 172.469 191.782 171.584ZM199.206 171.6C199.206 170.939 199.072 170.363 198.806 169.872C198.539 169.381 198.176 169.008 197.718 168.752C197.27 168.485 196.774 168.352 196.23 168.352C195.686 168.352 195.19 168.48 194.742 168.736C194.294 168.992 193.936 169.365 193.67 169.856C193.403 170.347 193.27 170.923 193.27 171.584C193.27 172.256 193.403 172.843 193.67 173.344C193.936 173.835 194.294 174.213 194.742 174.48C195.19 174.736 195.686 174.864 196.23 174.864C196.774 174.864 197.27 174.736 197.718 174.48C198.176 174.213 198.539 173.835 198.806 173.344C199.072 172.843 199.206 172.261 199.206 171.6ZM208.86 164.16V176H207.404V164.16H208.86ZM212.093 165.808C211.816 165.808 211.581 165.712 211.389 165.52C211.197 165.328 211.101 165.093 211.101 164.816C211.101 164.539 211.197 164.304 211.389 164.112C211.581 163.92 211.816 163.824 212.093 163.824C212.36 163.824 212.584 163.92 212.765 164.112C212.957 164.304 213.053 164.539 213.053 164.816C213.053 165.093 212.957 165.328 212.765 165.52C212.584 165.712 212.36 165.808 212.093 165.808ZM212.797 167.232V176H211.341V167.232H212.797ZM220.175 176L216.735 172.128V176H215.279V164.16H216.735V171.12L220.111 167.232H222.143L218.015 171.6L222.159 176H220.175ZM231.513 171.28C231.513 171.557 231.497 171.851 231.465 172.16H224.457C224.511 173.024 224.804 173.701 225.337 174.192C225.881 174.672 226.537 174.912 227.305 174.912C227.935 174.912 228.457 174.768 228.873 174.48C229.3 174.181 229.599 173.787 229.769 173.296H231.337C231.103 174.139 230.633 174.827 229.929 175.36C229.225 175.883 228.351 176.144 227.305 176.144C226.473 176.144 225.727 175.957 225.065 175.584C224.415 175.211 223.903 174.683 223.529 174C223.156 173.307 222.969 172.507 222.969 171.6C222.969 170.693 223.151 169.899 223.513 169.216C223.876 168.533 224.383 168.011 225.033 167.648C225.695 167.275 226.452 167.088 227.305 167.088C228.137 167.088 228.873 167.269 229.513 167.632C230.153 167.995 230.644 168.496 230.985 169.136C231.337 169.765 231.513 170.48 231.513 171.28ZM230.009 170.976C230.009 170.421 229.887 169.947 229.641 169.552C229.396 169.147 229.06 168.843 228.633 168.64C228.217 168.427 227.753 168.32 227.241 168.32C226.505 168.32 225.876 168.555 225.353 169.024C224.841 169.493 224.548 170.144 224.473 170.976H230.009ZM239.157 164.16V176H237.701V164.16H239.157ZM242.39 165.808C242.113 165.808 241.878 165.712 241.686 165.52C241.494 165.328 241.398 165.093 241.398 164.816C241.398 164.539 241.494 164.304 241.686 164.112C241.878 163.92 242.113 163.824 242.39 163.824C242.657 163.824 242.881 163.92 243.062 164.112C243.254 164.304 243.35 164.539 243.35 164.816C243.35 165.093 243.254 165.328 243.062 165.52C242.881 165.712 242.657 165.808 242.39 165.808ZM243.094 167.232V176H241.638V167.232H243.094ZM249.192 167.088C249.949 167.088 250.61 167.253 251.176 167.584C251.752 167.915 252.178 168.331 252.456 168.832V167.232H253.928V176.192C253.928 176.992 253.757 177.701 253.416 178.32C253.074 178.949 252.584 179.44 251.944 179.792C251.314 180.144 250.578 180.32 249.736 180.32C248.584 180.32 247.624 180.048 246.856 179.504C246.088 178.96 245.634 178.219 245.496 177.28H246.936C247.096 177.813 247.426 178.24 247.928 178.56C248.429 178.891 249.032 179.056 249.736 179.056C250.536 179.056 251.186 178.805 251.688 178.304C252.2 177.803 252.456 177.099 252.456 176.192V174.352C252.168 174.864 251.741 175.291 251.176 175.632C250.61 175.973 249.949 176.144 249.192 176.144C248.413 176.144 247.704 175.952 247.064 175.568C246.434 175.184 245.938 174.645 245.576 173.952C245.213 173.259 245.032 172.469 245.032 171.584C245.032 170.688 245.213 169.904 245.576 169.232C245.938 168.549 246.434 168.021 247.064 167.648C247.704 167.275 248.413 167.088 249.192 167.088ZM252.456 171.6C252.456 170.939 252.322 170.363 252.056 169.872C251.789 169.381 251.426 169.008 250.968 168.752C250.52 168.485 250.024 168.352 249.48 168.352C248.936 168.352 248.44 168.48 247.992 168.736C247.544 168.992 247.186 169.365 246.92 169.856C246.653 170.347 246.52 170.923 246.52 171.584C246.52 172.256 246.653 172.843 246.92 173.344C247.186 173.835 247.544 174.213 247.992 174.48C248.44 174.736 248.936 174.864 249.48 174.864C250.024 174.864 250.52 174.736 250.968 174.48C251.426 174.213 251.789 173.835 252.056 173.344C252.322 172.843 252.456 172.261 252.456 171.6ZM260.74 167.072C261.402 167.072 261.999 167.216 262.532 167.504C263.066 167.781 263.482 168.203 263.78 168.768C264.09 169.333 264.244 170.021 264.244 170.832V176H262.804V171.04C262.804 170.165 262.586 169.499 262.148 169.04C261.711 168.571 261.114 168.336 260.356 168.336C259.588 168.336 258.975 168.576 258.516 169.056C258.068 169.536 257.844 170.235 257.844 171.152V176H256.388V164.16H257.844V168.48C258.132 168.032 258.527 167.685 259.028 167.44C259.54 167.195 260.111 167.072 260.74 167.072ZM268.399 168.432V173.6C268.399 174.027 268.489 174.331 268.671 174.512C268.852 174.683 269.167 174.768 269.615 174.768H270.687V176H269.375C268.564 176 267.956 175.813 267.551 175.44C267.145 175.067 266.943 174.453 266.943 173.6V168.432H265.807V167.232H266.943V165.024H268.399V167.232H270.687V168.432H268.399ZM276.723 167.072C277.789 167.072 278.653 167.397 279.315 168.048C279.976 168.688 280.307 169.616 280.307 170.832V176H278.867V171.04C278.867 170.165 278.648 169.499 278.211 169.04C277.773 168.571 277.176 168.336 276.419 168.336C275.651 168.336 275.037 168.576 274.579 169.056C274.131 169.536 273.907 170.235 273.907 171.152V176H272.451V167.232H273.907V168.48C274.195 168.032 274.584 167.685 275.075 167.44C275.576 167.195 276.125 167.072 276.723 167.072ZM283.437 165.808C283.16 165.808 282.925 165.712 282.733 165.52C282.541 165.328 282.445 165.093 282.445 164.816C282.445 164.539 282.541 164.304 282.733 164.112C282.925 163.92 283.16 163.824 283.437 163.824C283.704 163.824 283.928 163.92 284.109 164.112C284.301 164.304 284.397 164.539 284.397 164.816C284.397 165.093 284.301 165.328 284.109 165.52C283.928 165.712 283.704 165.808 283.437 165.808ZM284.141 167.232V176H282.685V167.232H284.141ZM290.895 167.072C291.961 167.072 292.825 167.397 293.487 168.048C294.148 168.688 294.479 169.616 294.479 170.832V176H293.039V171.04C293.039 170.165 292.82 169.499 292.383 169.04C291.945 168.571 291.348 168.336 290.591 168.336C289.823 168.336 289.209 168.576 288.751 169.056C288.303 169.536 288.079 170.235 288.079 171.152V176H286.623V167.232H288.079V168.48C288.367 168.032 288.756 167.685 289.247 167.44C289.748 167.195 290.297 167.072 290.895 167.072ZM300.473 167.088C301.23 167.088 301.892 167.253 302.457 167.584C303.033 167.915 303.46 168.331 303.737 168.832V167.232H305.209V176.192C305.209 176.992 305.038 177.701 304.697 178.32C304.356 178.949 303.865 179.44 303.225 179.792C302.596 180.144 301.86 180.32 301.017 180.32C299.865 180.32 298.905 180.048 298.137 179.504C297.369 178.96 296.916 178.219 296.777 177.28H298.217C298.377 177.813 298.708 178.24 299.209 178.56C299.71 178.891 300.313 179.056 301.017 179.056C301.817 179.056 302.468 178.805 302.969 178.304C303.481 177.803 303.737 177.099 303.737 176.192V174.352C303.449 174.864 303.022 175.291 302.457 175.632C301.892 175.973 301.23 176.144 300.473 176.144C299.694 176.144 298.985 175.952 298.345 175.568C297.716 175.184 297.22 174.645 296.857 173.952C296.494 173.259 296.313 172.469 296.313 171.584C296.313 170.688 296.494 169.904 296.857 169.232C297.22 168.549 297.716 168.021 298.345 167.648C298.985 167.275 299.694 167.088 300.473 167.088ZM303.737 171.6C303.737 170.939 303.604 170.363 303.337 169.872C303.07 169.381 302.708 169.008 302.249 168.752C301.801 168.485 301.305 168.352 300.761 168.352C300.217 168.352 299.721 168.48 299.273 168.736C298.825 168.992 298.468 169.365 298.201 169.856C297.934 170.347 297.801 170.923 297.801 171.584C297.801 172.256 297.934 172.843 298.201 173.344C298.468 173.835 298.825 174.213 299.273 174.48C299.721 174.736 300.217 174.864 300.761 174.864C301.305 174.864 301.801 174.736 302.249 174.48C302.708 174.213 303.07 173.835 303.337 173.344C303.604 172.843 303.737 172.261 303.737 171.6Z" fill="black"/>
<g clip-path="url(#clip0_1412_64)">
<path fill-rule="evenodd" clip-rule="evenodd" d="M159.323 47.995L130.571 14.8788H149.44L159.323 47.995ZM160.371 0.0549771L152.781 12.6147H168.522L160.371 0.0549771ZM170.796 12.5298L162.352 0H177.964L170.796 12.5298ZM150.676 12.6497L158.073 0H142.217L150.676 12.6497ZM180.491 1.48938L173.025 12.6147H191L180.491 1.48938ZM141.05 1.48938L148.899 12.6147H130L141.05 1.48938ZM152.205 14.7788H168.899L160.798 47.5002L152.205 14.7788ZM162.223 48L190.633 14.8788H171.764L162.223 48Z" fill="#289BDB"/>
</g>
<defs>
<clipPath id="clip0_1412_64">
<rect width="61" height="48" fill="white" transform="translate(130)"/>
</clipPath>
</defs>
</svg>
