<svg width="230" height="133" viewBox="0 0 230 133" fill="none" xmlns="http://www.w3.org/2000/svg">
<path d="M41.472 91.696C42.144 91.696 42.528 92.176 42.528 92.656V105.136C42.528 105.52 42.144 106 41.472 106H1.056C0.48 106 0 105.52 0 105.136V91.696H14.688H41.472ZM14.688 77.008H0V30.064C0 29.68 0.48 29.2 1.056 29.2H13.728C14.304 29.2 14.688 29.68 14.688 30.064V77.008ZM76.0148 92.848C76.6868 92.848 77.0708 93.232 77.0708 93.712V105.136C77.0708 105.52 76.6868 106 76.0148 106H45.7748C45.1988 106 44.7188 105.52 44.7188 105.136V93.712C44.7188 93.232 45.1988 92.848 45.7748 92.848H53.6468V65.68V42.352V29.2H68.3348V42.352V65.68V92.848H76.0148ZM147.392 87.472V63.088L127.808 102.352C127.712 102.64 127.232 102.928 126.944 102.928H115.136C114.848 102.928 114.272 102.64 114.176 102.352L93.3443 62.032V105.136C93.3443 105.52 92.8643 106 92.2883 106H79.6163C78.9443 106 78.6562 105.52 78.6562 105.136V30.064C78.6562 29.68 78.9443 29.2 79.6163 29.2H92.4803C92.7682 29.2 93.3443 29.488 93.4403 29.776L120.992 86.032L147.2 29.776C147.392 29.488 147.872 29.2 148.256 29.2H160.928C161.6 29.2 161.984 29.68 161.984 30.064V87.472H147.392ZM226.507 104.848C226.795 105.424 226.315 106 225.643 106H212.395C212.107 106 211.627 105.808 211.531 105.424L196.363 62.608L181.387 105.424C181.291 105.808 180.811 106 180.427 106H167.275C166.411 106 166.027 105.424 166.315 104.848L195.403 29.776C195.691 29.008 197.035 29.008 197.323 29.776L226.507 104.848Z" fill="#2180B5"/>
<path d="M63.696 127.096C63.4187 127.096 63.184 127 62.992 126.808C62.8 126.616 62.704 126.381 62.704 126.104C62.704 125.827 62.8 125.592 62.992 125.4C63.184 125.208 63.4187 125.112 63.696 125.112C63.9627 125.112 64.1867 125.208 64.368 125.4C64.56 125.592 64.656 125.827 64.656 126.104C64.656 126.381 64.56 126.616 64.368 126.808C64.1867 127 63.9627 127.096 63.696 127.096ZM67.0554 127.096C66.778 127.096 66.5434 127 66.3514 126.808C66.1594 126.616 66.0634 126.381 66.0634 126.104C66.0634 125.827 66.1594 125.592 66.3514 125.4C66.5434 125.208 66.778 125.112 67.0554 125.112C67.322 125.112 67.546 125.208 67.7274 125.4C67.9194 125.592 68.0154 125.827 68.0154 126.104C68.0154 126.381 67.9194 126.616 67.7274 126.808C67.546 127 67.322 127.096 67.0554 127.096ZM70.4148 127.096C70.1374 127.096 69.9028 127 69.7108 126.808C69.5188 126.616 69.4228 126.381 69.4228 126.104C69.4228 125.827 69.5188 125.592 69.7108 125.4C69.9028 125.208 70.1374 125.112 70.4148 125.112C70.6814 125.112 70.9054 125.208 71.0868 125.4C71.2788 125.592 71.3748 125.827 71.3748 126.104C71.3748 126.381 71.2788 126.616 71.0868 126.808C70.9054 127 70.6814 127.096 70.4148 127.096ZM76.4141 127.144C75.7421 127.144 75.1395 127.032 74.6061 126.808C74.0728 126.573 73.6515 126.253 73.3421 125.848C73.0328 125.432 72.8621 124.957 72.8301 124.424H74.3341C74.3768 124.861 74.5795 125.219 74.9421 125.496C75.3155 125.773 75.8008 125.912 76.3981 125.912C76.9528 125.912 77.3901 125.789 77.7101 125.544C78.0301 125.299 78.1901 124.989 78.1901 124.616C78.1901 124.232 78.0195 123.949 77.6781 123.768C77.3368 123.576 76.8088 123.389 76.0941 123.208C75.4435 123.037 74.9101 122.867 74.4941 122.696C74.0888 122.515 73.7368 122.253 73.4381 121.912C73.1501 121.56 73.0061 121.101 73.0061 120.536C73.0061 120.088 73.1395 119.677 73.4061 119.304C73.6728 118.931 74.0515 118.637 74.5421 118.424C75.0328 118.2 75.5928 118.088 76.2221 118.088C77.1928 118.088 77.9768 118.333 78.5741 118.824C79.1715 119.315 79.4915 119.987 79.5341 120.84H78.0781C78.0461 120.381 77.8595 120.013 77.5181 119.736C77.1875 119.459 76.7395 119.32 76.1741 119.32C75.6515 119.32 75.2355 119.432 74.9261 119.656C74.6168 119.88 74.4621 120.173 74.4621 120.536C74.4621 120.824 74.5528 121.064 74.7341 121.256C74.9261 121.437 75.1608 121.587 75.4381 121.704C75.7261 121.811 76.1208 121.933 76.6221 122.072C77.2515 122.243 77.7635 122.413 78.1581 122.584C78.5528 122.744 78.8888 122.989 79.1661 123.32C79.4541 123.651 79.6035 124.083 79.6141 124.616C79.6141 125.096 79.4808 125.528 79.2141 125.912C78.9475 126.296 78.5688 126.6 78.0781 126.824C77.5981 127.037 77.0435 127.144 76.4141 127.144ZM83.1255 119.848C83.4135 119.347 83.8402 118.931 84.4055 118.6C84.9815 118.259 85.6482 118.088 86.4055 118.088C87.1842 118.088 87.8882 118.275 88.5175 118.648C89.1575 119.021 89.6588 119.549 90.0215 120.232C90.3842 120.904 90.5655 121.688 90.5655 122.584C90.5655 123.469 90.3842 124.259 90.0215 124.952C89.6588 125.645 89.1575 126.184 88.5175 126.568C87.8882 126.952 87.1842 127.144 86.4055 127.144C85.6588 127.144 84.9975 126.979 84.4215 126.648C83.8562 126.307 83.4242 125.885 83.1255 125.384V131.16H81.6695V118.232H83.1255V119.848ZM89.0775 122.584C89.0775 121.923 88.9442 121.347 88.6775 120.856C88.4108 120.365 88.0482 119.992 87.5895 119.736C87.1415 119.48 86.6455 119.352 86.1015 119.352C85.5682 119.352 85.0722 119.485 84.6135 119.752C84.1655 120.008 83.8028 120.387 83.5255 120.888C83.2588 121.379 83.1255 121.949 83.1255 122.6C83.1255 123.261 83.2588 123.843 83.5255 124.344C83.8028 124.835 84.1655 125.213 84.6135 125.48C85.0722 125.736 85.5682 125.864 86.1015 125.864C86.6455 125.864 87.1415 125.736 87.5895 125.48C88.0482 125.213 88.4108 124.835 88.6775 124.344C88.9442 123.843 89.0775 123.256 89.0775 122.584ZM100.482 122.28C100.482 122.557 100.466 122.851 100.434 123.16H93.426C93.4793 124.024 93.7727 124.701 94.306 125.192C94.85 125.672 95.506 125.912 96.274 125.912C96.9033 125.912 97.426 125.768 97.842 125.48C98.2687 125.181 98.5673 124.787 98.738 124.296H100.306C100.071 125.139 99.602 125.827 98.898 126.36C98.194 126.883 97.3193 127.144 96.274 127.144C95.442 127.144 94.6953 126.957 94.034 126.584C93.3833 126.211 92.8713 125.683 92.498 125C92.1247 124.307 91.938 123.507 91.938 122.6C91.938 121.693 92.1193 120.899 92.482 120.216C92.8447 119.533 93.3513 119.011 94.002 118.648C94.6633 118.275 95.4207 118.088 96.274 118.088C97.106 118.088 97.842 118.269 98.482 118.632C99.122 118.995 99.6127 119.496 99.954 120.136C100.306 120.765 100.482 121.48 100.482 122.28ZM98.978 121.976C98.978 121.421 98.8553 120.947 98.61 120.552C98.3647 120.147 98.0287 119.843 97.602 119.64C97.186 119.427 96.722 119.32 96.21 119.32C95.474 119.32 94.8447 119.555 94.322 120.024C93.81 120.493 93.5167 121.144 93.442 121.976H98.978ZM110.404 122.28C110.404 122.557 110.388 122.851 110.356 123.16H103.348C103.401 124.024 103.695 124.701 104.228 125.192C104.772 125.672 105.428 125.912 106.196 125.912C106.825 125.912 107.348 125.768 107.764 125.48C108.191 125.181 108.489 124.787 108.66 124.296H110.228C109.993 125.139 109.524 125.827 108.82 126.36C108.116 126.883 107.241 127.144 106.196 127.144C105.364 127.144 104.617 126.957 103.956 126.584C103.305 126.211 102.793 125.683 102.42 125C102.047 124.307 101.86 123.507 101.86 122.6C101.86 121.693 102.041 120.899 102.404 120.216C102.767 119.533 103.273 119.011 103.924 118.648C104.585 118.275 105.343 118.088 106.196 118.088C107.028 118.088 107.764 118.269 108.404 118.632C109.044 118.995 109.535 119.496 109.876 120.136C110.228 120.765 110.404 121.48 110.404 122.28ZM108.9 121.976C108.9 121.421 108.777 120.947 108.532 120.552C108.287 120.147 107.951 119.843 107.524 119.64C107.108 119.427 106.644 119.32 106.132 119.32C105.396 119.32 104.767 119.555 104.244 120.024C103.732 120.493 103.439 121.144 103.364 121.976H108.9ZM111.782 122.584C111.782 121.688 111.963 120.904 112.326 120.232C112.688 119.549 113.184 119.021 113.814 118.648C114.454 118.275 115.168 118.088 115.958 118.088C116.64 118.088 117.275 118.248 117.862 118.568C118.448 118.877 118.896 119.288 119.206 119.8V115.16H120.678V127H119.206V125.352C118.918 125.875 118.491 126.307 117.926 126.648C117.36 126.979 116.699 127.144 115.942 127.144C115.163 127.144 114.454 126.952 113.814 126.568C113.184 126.184 112.688 125.645 112.326 124.952C111.963 124.259 111.782 123.469 111.782 122.584ZM119.206 122.6C119.206 121.939 119.072 121.363 118.806 120.872C118.539 120.381 118.176 120.008 117.718 119.752C117.27 119.485 116.774 119.352 116.23 119.352C115.686 119.352 115.19 119.48 114.742 119.736C114.294 119.992 113.936 120.365 113.67 120.856C113.403 121.347 113.27 121.923 113.27 122.584C113.27 123.256 113.403 123.843 113.67 124.344C113.936 124.835 114.294 125.213 114.742 125.48C115.19 125.736 115.686 125.864 116.23 125.864C116.774 125.864 117.27 125.736 117.718 125.48C118.176 125.213 118.539 124.835 118.806 124.344C119.072 123.843 119.206 123.261 119.206 122.6ZM128.86 115.16V127H127.404V115.16H128.86ZM132.093 116.808C131.816 116.808 131.581 116.712 131.389 116.52C131.197 116.328 131.101 116.093 131.101 115.816C131.101 115.539 131.197 115.304 131.389 115.112C131.581 114.92 131.816 114.824 132.093 114.824C132.36 114.824 132.584 114.92 132.765 115.112C132.957 115.304 133.053 115.539 133.053 115.816C133.053 116.093 132.957 116.328 132.765 116.52C132.584 116.712 132.36 116.808 132.093 116.808ZM132.797 118.232V127H131.341V118.232H132.797ZM140.175 127L136.735 123.128V127H135.279V115.16H136.735V122.12L140.111 118.232H142.143L138.015 122.6L142.159 127H140.175ZM151.513 122.28C151.513 122.557 151.497 122.851 151.465 123.16H144.457C144.511 124.024 144.804 124.701 145.337 125.192C145.881 125.672 146.537 125.912 147.305 125.912C147.935 125.912 148.457 125.768 148.873 125.48C149.3 125.181 149.599 124.787 149.769 124.296H151.337C151.103 125.139 150.633 125.827 149.929 126.36C149.225 126.883 148.351 127.144 147.305 127.144C146.473 127.144 145.727 126.957 145.065 126.584C144.415 126.211 143.903 125.683 143.529 125C143.156 124.307 142.969 123.507 142.969 122.6C142.969 121.693 143.151 120.899 143.513 120.216C143.876 119.533 144.383 119.011 145.033 118.648C145.695 118.275 146.452 118.088 147.305 118.088C148.137 118.088 148.873 118.269 149.513 118.632C150.153 118.995 150.644 119.496 150.985 120.136C151.337 120.765 151.513 121.48 151.513 122.28ZM150.009 121.976C150.009 121.421 149.887 120.947 149.641 120.552C149.396 120.147 149.06 119.843 148.633 119.64C148.217 119.427 147.753 119.32 147.241 119.32C146.505 119.32 145.876 119.555 145.353 120.024C144.841 120.493 144.548 121.144 144.473 121.976H150.009ZM159.157 115.16V127H157.701V115.16H159.157ZM162.39 116.808C162.113 116.808 161.878 116.712 161.686 116.52C161.494 116.328 161.398 116.093 161.398 115.816C161.398 115.539 161.494 115.304 161.686 115.112C161.878 114.92 162.113 114.824 162.39 114.824C162.657 114.824 162.881 114.92 163.062 115.112C163.254 115.304 163.35 115.539 163.35 115.816C163.35 116.093 163.254 116.328 163.062 116.52C162.881 116.712 162.657 116.808 162.39 116.808ZM163.094 118.232V127H161.638V118.232H163.094ZM169.192 118.088C169.949 118.088 170.61 118.253 171.176 118.584C171.752 118.915 172.178 119.331 172.456 119.832V118.232H173.928V127.192C173.928 127.992 173.757 128.701 173.416 129.32C173.074 129.949 172.584 130.44 171.944 130.792C171.314 131.144 170.578 131.32 169.736 131.32C168.584 131.32 167.624 131.048 166.856 130.504C166.088 129.96 165.634 129.219 165.496 128.28H166.936C167.096 128.813 167.426 129.24 167.928 129.56C168.429 129.891 169.032 130.056 169.736 130.056C170.536 130.056 171.186 129.805 171.688 129.304C172.2 128.803 172.456 128.099 172.456 127.192V125.352C172.168 125.864 171.741 126.291 171.176 126.632C170.61 126.973 169.949 127.144 169.192 127.144C168.413 127.144 167.704 126.952 167.064 126.568C166.434 126.184 165.938 125.645 165.576 124.952C165.213 124.259 165.032 123.469 165.032 122.584C165.032 121.688 165.213 120.904 165.576 120.232C165.938 119.549 166.434 119.021 167.064 118.648C167.704 118.275 168.413 118.088 169.192 118.088ZM172.456 122.6C172.456 121.939 172.322 121.363 172.056 120.872C171.789 120.381 171.426 120.008 170.968 119.752C170.52 119.485 170.024 119.352 169.48 119.352C168.936 119.352 168.44 119.48 167.992 119.736C167.544 119.992 167.186 120.365 166.92 120.856C166.653 121.347 166.52 121.923 166.52 122.584C166.52 123.256 166.653 123.843 166.92 124.344C167.186 124.835 167.544 125.213 167.992 125.48C168.44 125.736 168.936 125.864 169.48 125.864C170.024 125.864 170.52 125.736 170.968 125.48C171.426 125.213 171.789 124.835 172.056 124.344C172.322 123.843 172.456 123.261 172.456 122.6ZM180.74 118.072C181.402 118.072 181.999 118.216 182.532 118.504C183.066 118.781 183.482 119.203 183.78 119.768C184.09 120.333 184.244 121.021 184.244 121.832V127H182.804V122.04C182.804 121.165 182.586 120.499 182.148 120.04C181.711 119.571 181.114 119.336 180.356 119.336C179.588 119.336 178.975 119.576 178.516 120.056C178.068 120.536 177.844 121.235 177.844 122.152V127H176.388V115.16H177.844V119.48C178.132 119.032 178.527 118.685 179.028 118.44C179.54 118.195 180.111 118.072 180.74 118.072ZM188.399 119.432V124.6C188.399 125.027 188.489 125.331 188.671 125.512C188.852 125.683 189.167 125.768 189.615 125.768H190.687V127H189.375C188.564 127 187.956 126.813 187.551 126.44C187.145 126.067 186.943 125.453 186.943 124.6V119.432H185.807V118.232H186.943V116.024H188.399V118.232H190.687V119.432H188.399ZM196.723 118.072C197.789 118.072 198.653 118.397 199.315 119.048C199.976 119.688 200.307 120.616 200.307 121.832V127H198.867V122.04C198.867 121.165 198.648 120.499 198.211 120.04C197.773 119.571 197.176 119.336 196.419 119.336C195.651 119.336 195.037 119.576 194.579 120.056C194.131 120.536 193.907 121.235 193.907 122.152V127H192.451V118.232H193.907V119.48C194.195 119.032 194.584 118.685 195.075 118.44C195.576 118.195 196.125 118.072 196.723 118.072ZM203.437 116.808C203.16 116.808 202.925 116.712 202.733 116.52C202.541 116.328 202.445 116.093 202.445 115.816C202.445 115.539 202.541 115.304 202.733 115.112C202.925 114.92 203.16 114.824 203.437 114.824C203.704 114.824 203.928 114.92 204.109 115.112C204.301 115.304 204.397 115.539 204.397 115.816C204.397 116.093 204.301 116.328 204.109 116.52C203.928 116.712 203.704 116.808 203.437 116.808ZM204.141 118.232V127H202.685V118.232H204.141ZM210.895 118.072C211.961 118.072 212.825 118.397 213.487 119.048C214.148 119.688 214.479 120.616 214.479 121.832V127H213.039V122.04C213.039 121.165 212.82 120.499 212.383 120.04C211.945 119.571 211.348 119.336 210.591 119.336C209.823 119.336 209.209 119.576 208.751 120.056C208.303 120.536 208.079 121.235 208.079 122.152V127H206.623V118.232H208.079V119.48C208.367 119.032 208.756 118.685 209.247 118.44C209.748 118.195 210.297 118.072 210.895 118.072ZM220.473 118.088C221.23 118.088 221.892 118.253 222.457 118.584C223.033 118.915 223.46 119.331 223.737 119.832V118.232H225.209V127.192C225.209 127.992 225.038 128.701 224.697 129.32C224.356 129.949 223.865 130.44 223.225 130.792C222.596 131.144 221.86 131.32 221.017 131.32C219.865 131.32 218.905 131.048 218.137 130.504C217.369 129.96 216.916 129.219 216.777 128.28H218.217C218.377 128.813 218.708 129.24 219.209 129.56C219.71 129.891 220.313 130.056 221.017 130.056C221.817 130.056 222.468 129.805 222.969 129.304C223.481 128.803 223.737 128.099 223.737 127.192V125.352C223.449 125.864 223.022 126.291 222.457 126.632C221.892 126.973 221.23 127.144 220.473 127.144C219.694 127.144 218.985 126.952 218.345 126.568C217.716 126.184 217.22 125.645 216.857 124.952C216.494 124.259 216.313 123.469 216.313 122.584C216.313 121.688 216.494 120.904 216.857 120.232C217.22 119.549 217.716 119.021 218.345 118.648C218.985 118.275 219.694 118.088 220.473 118.088ZM223.737 122.6C223.737 121.939 223.604 121.363 223.337 120.872C223.07 120.381 222.708 120.008 222.249 119.752C221.801 119.485 221.305 119.352 220.761 119.352C220.217 119.352 219.721 119.48 219.273 119.736C218.825 119.992 218.468 120.365 218.201 120.856C217.934 121.347 217.801 121.923 217.801 122.584C217.801 123.256 217.934 123.843 218.201 124.344C218.468 124.835 218.825 125.213 219.273 125.48C219.721 125.736 220.217 125.864 220.761 125.864C221.305 125.864 221.801 125.736 222.249 125.48C222.708 125.213 223.07 124.835 223.337 124.344C223.604 123.843 223.737 123.261 223.737 122.6Z" fill="black"/>
<g clip-path="url(#clip0_1413_74)">
<path fill-rule="evenodd" clip-rule="evenodd" d="M120.074 37.996L97.4492 11.7791H112.297L120.074 37.996ZM120.898 0.0435235L114.926 9.98667H127.312L120.898 0.0435235ZM129.102 9.91941L122.457 0H134.742L129.102 9.91941ZM113.27 10.0144L119.09 0H106.613L113.27 10.0144ZM136.73 1.17909L130.855 9.98667H145L136.73 1.17909ZM105.695 1.17909L111.871 9.98667H97L105.695 1.17909ZM114.473 11.6999H127.609L121.234 37.6043L114.473 11.6999ZM122.355 38L144.711 11.7791H129.863L122.355 38Z" fill="#2180B5"/>
</g>
<defs>
<clipPath id="clip0_1413_74">
<rect width="48" height="38" fill="white" transform="translate(97)"/>
</clipPath>
</defs>
</svg>
